<svg xmlns="http://www.w3.org/2000/svg" viewBox="0 0 335.93 79.73"><defs><style>.cls-1{fill:#d71718;}</style></defs><g id="圖層_2" data-name="圖層 2"><g id="圖層_5" data-name="圖層 5"><path class="cls-1" d="M141.15,45.19c-5.7-12.44-3.79-28.44,6.5-33.31,4.33-2.17,9.75-1.9,15.71-1.62l-6-9.49s-26.27-4.06-43.89,6.51c-17.6,10.84-25.19,45.23-6.77,61.49,18.43,16,46.87,9.75,46.87,9.75L168.5,58.76S146.84,57.94,141.15,45.19Z"/><path class="cls-1" d="M334,4.68A28.22,28.22,0,0,0,327.34,2,100.84,100.84,0,0,0,312.83.11c-7-.26-13.7-.54-23.1,5.37-9.13,5.1-12.9,19.61-12.36,28.2.55,8.87,1.62,25.52-3.77,31.7-5.08,6.44-13.68,3-13.68,3l1.88,8S279.52,83.1,297,77.47s20.94-16.66,20.66-35.18c0-18.56,1.35-24.45,5.11-28.21s13.17-1.62,13.17-1.62Z"/><path class="cls-1" d="M225.63,45.19c-5.7-12.44-3.8-28.44,6.49-33.31,4.34-2.18,10-1.9,16-1.62l-6-9.49S215.61-3.3,198,7.28c-17.6,10.83-25.19,45.23-6.49,61.49,18.43,16,46.87,9.75,46.87,9.75L253,58.76S231.6,57.94,225.63,45.19Z"/><path class="cls-1" d="M68.87,36s14.49-4.73,14.78-17.84C83.65,5,66.09,0,62.17,0H3.63L0,3.09V76.36l3.35,3.37H55.5c13.66,0,31-7,32.07-22.85C88.4,41.27,68.87,36,68.87,36ZM36.25,8.08A10.43,10.43,0,0,1,42.1,10a13.67,13.67,0,0,1,5.58,11.14A13.3,13.3,0,0,1,42.1,32.34a13.52,13.52,0,0,1-5.85,2.23ZM42.1,69.42a12.5,12.5,0,0,1-5.56,1.12h-.29V43.22h.29a17.51,17.51,0,0,1,5.56.83,14,14,0,0,1,8.65,12.83A13.66,13.66,0,0,1,42.1,69.42Z"/></g></g></svg>